<svg xmlns="http://www.w3.org/2000/svg" viewBox="0 0 134 134"><path d="M38.736 30.595a1532.311 1532.311 0 0 1-3.611 11.713c-.909 2.885-1.217 4.875-.812 5.238.359.324 3.993 1.617 8.075 2.874 8.386 2.585 8.155 2.62 15.91-2.341l3.575-2.286 1.803-8.2c.992-4.51 1.747-8.265 1.676-8.344-.123-.137-23.807-5.714-24.258-5.714-.116 0-1.177 3.177-2.358 7.061m41.39-4.208c-6.232 1.485-11.393 2.769-11.467 2.851-.077.083.674 3.842 1.666 8.354l1.803 8.2 3.575 2.286c7.755 4.962 7.525 4.927 15.91 2.341 4.081-1.257 7.714-2.551 8.075-2.874.405-.364.097-2.353-.812-5.238a1532.311 1532.311 0 0 1-3.611-11.713c-1.235-4.063-2.499-7.029-2.978-6.985-.457.042-5.93 1.291-12.162 2.775M23.382 59.753c-4.427 4.765-8.048 8.926-8.048 9.247 0 .811 15.957 17.911 16.714 17.911.339 0 3.382-2.537 6.762-5.637l6.146-5.636V62.361l-6.147-5.636c-3.38-3.1-6.422-5.637-6.762-5.637s-4.238 3.899-8.665 8.665m71.683-2.95-6.035 5.652.008 6.591.007 6.592 6.146 5.636c3.38 3.1 6.422 5.637 6.762 5.637.759 0 16.714-17.099 16.714-17.911 0-.911-16.009-17.915-16.832-17.879-.404.017-3.45 2.575-6.769 5.684m-36.161-.87-7.061 4.139v17.849l7.061 4.141c3.884 2.278 7.526 4.142 8.095 4.142.569 0 4.211-1.865 8.095-4.142l7.061-4.141V60.076l-7.061-4.141c-3.884-2.278-7.526-4.142-8.095-4.142-.569 0-4.211 1.865-8.095 4.142m-17.702 31.97c-3.767 1.224-6.96 2.554-7.094 2.953-.229.687 6.276 22.713 6.887 23.326.249.249 23.989-5.042 24.361-5.43.077-.078-.694-3.862-1.709-8.409l-1.845-8.266-5.443-3.271c-2.992-1.8-6.087-3.24-6.874-3.201-.788.039-4.515 1.074-8.283 2.299m36.436.901-5.443 3.271-1.845 8.266c-1.015 4.546-1.783 8.331-1.709 8.409.372.388 24.113 5.678 24.361 5.43.608-.608 7.116-22.636 6.89-23.318-.243-.729-13.731-5.292-15.723-5.317-.597-.008-3.536 1.459-6.529 3.259" fill="#fff"/></svg>