<svg xmlns="http://www.w3.org/2000/svg" viewBox="0 0 128 128"><path d="M 48.971 34.250 C 47.258 39.888, 44.900 47.539, 43.731 51.252 C 42.412 55.440, 41.965 58.328, 42.552 58.856 C 43.074 59.325, 48.348 61.202, 54.272 63.028 C 66.444 66.780, 66.109 66.830, 77.367 59.628 L 82.556 56.309 85.174 44.405 C 86.614 37.857, 87.709 32.407, 87.606 32.293 C 87.429 32.097, 53.048 24, 52.393 24 C 52.224 24, 50.684 28.612, 48.971 34.250 M 109.053 28.141 C 100.007 30.297, 92.516 32.160, 92.407 32.280 C 92.297 32.401, 93.386 37.857, 94.826 44.405 L 97.444 56.309 102.633 59.628 C 113.891 66.830, 113.556 66.780, 125.728 63.028 C 131.652 61.202, 136.926 59.325, 137.448 58.856 C 138.035 58.328, 137.588 55.440, 136.269 51.252 C 135.100 47.539, 132.742 39.888, 131.029 34.250 C 129.237 28.353, 127.401 24.047, 126.707 24.111 C 126.043 24.172, 118.099 25.986, 109.053 28.141 M 26.684 76.577 C 20.258 83.494, 15 89.535, 15 90 C 15 91.178, 38.163 116, 39.263 116 C 39.755 116, 44.172 112.318, 49.078 107.818 L 58 99.637 58 90 L 58 80.363 49.078 72.182 C 44.172 67.682, 39.755 64, 39.263 64 C 38.771 64, 33.111 69.660, 26.684 76.577 M 130.740 72.296 L 121.979 80.500 121.990 90.068 L 122 99.637 130.922 107.818 C 135.828 112.318, 140.245 116, 140.737 116 C 141.837 116, 165 91.178, 165 90 C 165 88.678, 141.762 63.994, 140.566 64.046 C 139.980 64.072, 135.558 67.784, 130.740 72.296 M 78.250 71.033 L 68 77.045 68 90 L 68 102.955 78.250 108.967 C 83.888 112.274, 89.175 114.980, 90 114.980 C 90.825 114.980, 96.112 112.274, 101.750 108.967 L 112 102.955 112 90 L 112 77.045 101.750 71.033 C 96.112 67.726, 90.825 65.020, 90 65.020 C 89.175 65.020, 83.888 67.726, 78.250 71.033 M 52.554 117.442 C 47.084 119.220, 42.450 121.149, 42.257 121.729 C 41.925 122.726, 51.366 154.700, 52.255 155.588 C 52.616 155.949, 87.078 148.269, 87.618 147.707 C 87.728 147.593, 86.611 142.100, 85.138 135.500 L 82.458 123.500 74.556 118.750 C 70.211 116.138, 65.720 114.047, 64.578 114.104 C 63.435 114.161, 58.024 115.663, 52.554 117.442 M 105.444 118.750 L 97.542 123.500 94.862 135.500 C 93.389 142.100, 92.272 147.593, 92.382 147.707 C 92.922 148.269, 127.384 155.949, 127.745 155.588 C 128.628 154.705, 138.076 122.729, 137.746 121.739 C 137.393 120.679, 117.813 114.057, 114.922 114.020 C 114.055 114.009, 109.789 116.138, 105.444 118.750" stroke="none" fill="#fffcfc" fill-rule="evenodd"/><path d="" stroke="none" fill="#fcfcfc" fill-rule="evenodd"/></svg>